<?xml version="1.0" standalone="no"?>
<!DOCTYPE svg PUBLIC "-//W3C//DTD SVG 20010904//EN"
 "http://www.w3.org/TR/2001/REC-SVG-20010904/DTD/svg10.dtd">
<svg version="1.0" xmlns="http://www.w3.org/2000/svg"
 width="60pt" height="50pt" viewBox="0 0 3000.000000 2000.000000"
 preserveAspectRatio="xMidYMid meet">

<g transform="translate(0.000000,2000.000000) scale(0.100000,-0.100000)"
fill="#000000" stroke="none">
<path d="M14620 18159 c-256 -297 -474 -548 -485 -558 -11 -10 -200 -110 -421
-221 l-401 -204 -161 122 c-89 67 -167 125 -175 127 -8 4 -104 -152 -290 -471
l-278 -477 -187 -583 c-103 -321 -191 -584 -197 -584 -5 0 -165 75 -355 167
-190 91 -440 212 -557 269 l-211 102 -246 -456 c-136 -252 -250 -462 -254
-469 -5 -8 -88 -20 -237 -33 -127 -12 -233 -24 -237 -29 -5 -4 -101 -216 -215
-473 l-208 -465 -209 -219 c-147 -154 -218 -222 -240 -228 -936 -271 -1707
-544 -2434 -864 -133 -59 -239 -108 -234 -110 4 -1 78 11 163 27 85 16 312 59
504 96 2080 396 3779 622 5520 735 1434 92 2885 101 4275 25 1927 -106 3679
-329 5910 -751 190 -36 426 -81 525 -100 99 -19 184 -33 189 -31 14 5 -430
198 -719 314 -468 188 -1083 403 -1548 542 -110 33 -200 61 -202 63 -1 2 -9
15 -16 29 -8 15 -264 226 -569 469 -305 243 -564 450 -574 460 -11 11 -112
219 -225 464 l-206 445 -700 478 c-385 263 -885 606 -1111 762 l-411 283 -319
145 c-175 79 -326 151 -335 161 -9 9 -147 233 -308 498 -160 265 -299 488
-309 496 -19 17 -831 588 -835 587 -1 0 -211 -243 -467 -540z m1099 -942 c396
-656 481 -805 691 -1207 l240 -458 150 -518 c82 -285 149 -519 147 -520 -1 -1
-200 285 -442 636 -336 489 -445 639 -460 639 -11 0 -81 -17 -155 -37 -119
-33 -135 -40 -132 -57 2 -11 82 -341 178 -734 96 -393 173 -716 171 -718 -5
-4 -387 14 -392 18 -2 2 -197 300 -434 663 l-432 658 208 216 c115 119 261
271 326 338 64 67 117 130 117 140 0 19 -235 1623 -246 1679 -4 19 -3 26 3 20
6 -5 213 -347 462 -758z m-1635 -138 l-277 -444 -212 -542 -212 -541 103 -589
c57 -323 104 -593 104 -599 0 -6 -73 -43 -162 -82 l-163 -71 -285 -26 c-295
-26 -777 -78 -889 -96 -35 -5 -66 -7 -69 -5 -3 3 7 46 21 96 l26 90 348 372
c191 205 358 384 370 399 22 25 23 39 33 310 l11 284 209 475 209 475 553 471
c304 260 554 471 556 469 1 -1 -122 -202 -274 -446z m3908 -1328 l743 -364
493 -604 c271 -333 491 -607 489 -609 -2 -2 -251 86 -553 197 -302 111 -572
209 -601 219 l-52 19 23 -62 c13 -34 69 -183 126 -330 56 -148 100 -270 98
-272 -2 -1 -100 13 -218 33 l-214 34 -361 354 -360 354 -28 177 c-16 98 -33
203 -39 234 -10 57 -10 57 -290 355 -154 165 -296 315 -314 335 -30 31 -56 95
-194 489 -88 250 -160 456 -160 458 0 2 151 -144 335 -325 l335 -328 742 -364z
m-7090 -792 l93 -281 113 -90 c62 -50 112 -94 110 -98 -2 -4 -100 -142 -218
-307 l-215 -300 -229 -47 c-125 -26 -230 -46 -231 -44 -2 2 67 160 153 353
l155 349 83 365 c46 201 84 369 84 373 0 27 19 -22 102 -273z"/>
<path d="M13910 13003 l-75 -4 3 -77 c18 -469 61 -1767 58 -1769 -1 -2 -128
404 -281 902 -153 498 -282 910 -286 916 -5 9 -84 9 -309 0 -167 -6 -304 -12
-306 -14 -3 -2 21 -700 86 -2537 12 -321 23 -586 25 -588 2 -2 101 -1 219 3
l216 7 0 72 c0 39 -16 521 -35 1071 -20 550 -34 1021 -33 1047 3 40 55 -121
342 -1055 186 -606 342 -1104 345 -1107 7 -6 493 9 500 16 4 3 -2 171 -54
1669 -13 380 -29 848 -35 1040 -6 193 -13 365 -16 383 l-5 32 -142 -2 c-78 -1
-176 -4 -217 -5z"/>
<path d="M15466 12783 c-19 -624 -84 -2898 -82 -2900 5 -6 1332 -40 1337 -35
4 4 9 104 12 223 l6 216 -122 6 c-67 4 -259 10 -426 13 l-304 7 6 191 c4 105
10 312 14 460 l6 268 246 -6 c135 -4 287 -9 337 -12 l91 -5 6 122 c4 67 7 168
7 225 l0 102 -142 6 c-79 3 -228 8 -333 12 -104 3 -192 8 -194 10 -4 4 20 857
25 863 2 2 190 -2 419 -9 229 -7 419 -9 423 -6 8 9 20 429 12 437 -5 6 -1102
40 -1266 39 l-71 0 -7 -227z"/>
<path d="M17595 12918 c-15 -43 -726 -3071 -722 -3075 8 -7 436 -38 442 -31 3
2 32 123 65 269 33 145 62 269 64 274 2 7 100 4 300 -11 163 -12 298 -23 300
-25 2 -2 13 -130 25 -283 11 -153 23 -281 25 -283 8 -8 481 -41 487 -34 7 8
-261 3144 -270 3152 -3 4 -145 16 -316 28 -170 12 -329 24 -353 27 -30 4 -44
1 -47 -8z m360 -1407 c31 -414 54 -755 53 -756 -5 -5 -457 30 -462 36 -3 3 72
348 167 768 128 568 174 756 179 735 4 -16 32 -368 63 -783z"/>
<path d="M11482 12870 c-178 -16 -325 -30 -326 -32 -7 -9 -239 -3149 -233
-3154 5 -5 438 24 443 30 1 0 9 127 19 281 10 154 20 283 24 286 8 9 584 57
593 50 4 -3 35 -125 69 -271 34 -146 65 -269 69 -274 8 -8 477 27 487 37 2 3
-165 697 -374 1541 l-378 1536 -35 -1 c-19 -1 -181 -14 -358 -29z m240 -1343
c98 -414 176 -757 174 -762 -3 -10 -452 -52 -461 -44 -5 6 99 1569 104 1563 3
-3 85 -343 183 -757z"/>
<path d="M19150 12788 c0 -6 -84 -704 -186 -1551 -102 -846 -184 -1540 -181
-1543 4 -5 480 -65 483 -61 1 1 36 285 78 631 41 346 77 630 78 631 8 7 226
-26 268 -40 64 -21 123 -74 148 -134 39 -88 37 -155 -9 -531 -43 -355 -54
-566 -32 -605 10 -17 39 -23 235 -47 293 -36 268 -37 256 15 -18 78 -9 240 32
582 35 285 41 359 37 460 -9 207 -72 348 -195 439 l-52 37 72 36 c138 69 241
211 287 395 58 228 84 638 48 766 -64 234 -244 380 -534 431 -58 11 -794 101
-819 101 -8 0 -14 -5 -14 -12z m624 -513 c167 -23 221 -57 252 -162 19 -64 18
-120 -11 -354 -30 -244 -51 -316 -109 -373 -66 -66 -147 -79 -338 -55 -86 11
-88 12 -88 39 0 26 94 816 106 892 6 37 7 38 42 33 21 -3 86 -12 146 -20z"/>
<path d="M9670 12676 c-595 -77 -625 -82 -623 -101 18 -154 396 -3081 399
-3084 4 -4 1283 156 1315 165 13 4 12 28 -13 221 -15 119 -30 218 -32 220 -2
2 -183 -19 -402 -47 -220 -28 -408 -52 -419 -53 -19 -2 -23 21 -77 438 -32
242 -56 447 -55 455 2 11 73 23 330 56 181 23 330 44 332 46 6 5 -51 427 -58
434 -4 4 -153 -12 -333 -35 -179 -24 -327 -41 -330 -39 -7 7 -113 852 -108
857 3 3 190 29 416 58 227 29 414 55 416 58 3 3 -7 98 -22 212 -14 115 -26
211 -26 216 0 14 -89 4 -710 -77z"/>
<path d="M20896 12553 c-15 -75 -68 -405 -65 -407 2 -2 114 -22 248 -44 134
-23 246 -43 249 -47 3 -3 -92 -597 -212 -1321 -120 -724 -215 -1318 -212
-1321 11 -11 469 -84 476 -76 4 4 105 600 224 1323 120 723 218 1315 219 1316
1 1 114 -17 250 -39 177 -29 251 -37 256 -29 7 12 74 422 69 427 -4 4 -1460
245 -1480 245 -10 0 -19 -11 -22 -27z"/>
<path d="M7672 12371 c-116 -21 -214 -40 -216 -42 -6 -6 515 -3072 523 -3080
6 -7 1269 205 1278 214 4 4 -66 428 -72 435 -2 2 -179 -27 -395 -63 -215 -37
-395 -63 -399 -59 -6 7 -451 2600 -451 2627 0 12 -47 7 -268 -32z"/>
<path d="M22715 12256 c-36 -155 -644 -3040 -641 -3043 7 -8 469 -103 474 -98
3 3 67 296 143 651 75 355 139 647 142 650 2 2 122 -20 266 -51 144 -30 263
-55 266 -55 11 0 -1 -67 -130 -675 -75 -351 -134 -639 -132 -641 6 -7 480
-104 484 -100 6 5 654 3058 651 3061 -8 5 -484 103 -487 99 -2 -2 -65 -294
-141 -649 -75 -354 -139 -648 -143 -651 -5 -6 -538 102 -542 109 -1 1 60 292
136 647 76 355 138 650 139 656 0 6 -47 21 -107 33 -60 12 -168 34 -241 50
l-132 29 -5 -22z"/>
<path d="M6455 12159 c-356 -33 -605 -212 -681 -489 -22 -82 -29 -243 -15
-341 18 -117 365 -1738 392 -1824 116 -378 384 -562 750 -515 364 47 601 231
665 517 12 56 15 107 12 211 -4 117 -13 173 -57 376 -28 132 -53 241 -54 242
-3 2 -448 -93 -451 -97 -2 -2 18 -103 45 -224 73 -335 74 -404 7 -481 -38 -43
-86 -68 -160 -83 -135 -28 -241 39 -283 181 -24 83 -376 1740 -382 1799 -17
171 87 279 269 279 64 0 117 -21 155 -62 41 -44 74 -138 114 -325 22 -103 41
-189 43 -190 3 -3 419 83 442 91 14 5 -41 281 -82 416 -82 270 -257 455 -475
504 -88 19 -160 24 -254 15z"/>
<path d="M14330 9539 c-2305 -38 -4671 -320 -6920 -824 -413 -93 -1040 -248
-1040 -257 0 -4 75 -99 168 -210 171 -208 612 -756 612 -762 0 -1 -33 -162
-74 -357 -127 -601 -165 -809 -149 -809 8 0 85 18 171 39 635 160 1349 314
2012 436 162 30 296 51 298 47 6 -18 276 -445 377 -597 1002 -1509 2310 -2882
3860 -4051 302 -228 636 -464 978 -691 l308 -205 142 93 c2110 1371 3802 3020
5052 4924 73 110 178 275 234 367 89 145 106 167 125 163 11 -3 134 -25 271
-50 569 -103 1304 -261 1878 -403 174 -44 317 -75 317 -70 0 29 -150 893 -208
1201 l-9 47 216 253 c119 139 290 338 381 441 91 103 166 191 168 195 1 5 -10
11 -25 14 -15 4 -194 47 -398 96 -2888 699 -5777 1020 -8745 970z m322 -682
c155 -76 221 -206 221 -432 0 -167 -33 -264 -126 -362 -60 -64 -145 -107 -237
-122 -36 -6 -165 -11 -287 -11 l-223 0 0 58 0 57 52 19 51 18 -6 266 c-4 147
-7 294 -7 328 l0 60 -50 18 c-42 15 -50 22 -51 45 -1 14 -2 40 -3 56 l-1 30
90 6 c50 3 183 6 296 5 l205 -1 76 -38z m1534 -381 l137 -413 46 -15 46 -14
-3 -59 c-1 -32 -4 -60 -5 -61 -1 -1 -98 1 -215 4 l-213 5 3 61 3 60 48 14 c47
13 48 14 41 45 -17 82 -6 77 -177 77 l-154 0 -12 -37 c-7 -21 -15 -43 -17 -50
-3 -7 17 -18 51 -29 l57 -18 -6 -45 c-3 -24 -6 -50 -6 -57 0 -16 -106 -18
-297 -7 l-113 6 0 57 0 57 51 15 51 14 162 402 161 402 112 0 112 0 137 -414z
m-2802 372 c3 -13 6 -39 6 -59 0 -33 -4 -37 -50 -59 -30 -14 -50 -30 -50 -39
1 -9 11 -189 24 -401 13 -212 23 -386 21 -388 -2 -2 -54 -6 -117 -9 l-113 -5
-199 297 c-109 162 -200 294 -201 293 -4 -5 25 -442 29 -455 3 -6 22 -14 43
-17 55 -10 59 -15 66 -77 l7 -56 -68 -6 c-37 -4 -127 -10 -199 -13 l-133 -7 0
25 c0 14 -3 40 -6 57 -6 30 -5 32 45 53 37 16 51 27 51 42 2 99 -35 623 -44
632 -6 6 -30 16 -52 22 -41 12 -41 13 -48 68 -4 31 -5 58 -4 59 2 2 77 9 166
16 114 8 166 9 170 2 62 -98 396 -592 399 -590 4 5 -24 457 -28 461 -2 2 -24
10 -49 18 -44 14 -45 16 -53 68 -4 29 -5 56 -2 59 6 5 249 28 331 30 46 1 52
-2 58 -21z m3976 -23 c212 -14 387 -25 390 -25 3 0 1 -65 -4 -145 l-9 -145
-46 1 c-75 1 -84 8 -96 75 l-10 59 -63 8 c-35 5 -65 7 -67 5 -3 -3 -45 -584
-45 -628 0 -21 9 -29 53 -46 l52 -20 -3 -54 c-2 -30 -5 -56 -7 -59 -7 -7 -419
20 -428 28 -4 4 -4 32 0 61 l8 54 55 14 56 13 21 322 c12 177 19 324 17 327
-3 3 -33 5 -66 5 l-60 0 -22 -60 c-11 -33 -24 -59 -29 -57 -4 1 -32 2 -63 2
l-56 0 6 88 c11 145 18 202 24 202 4 0 180 -11 392 -25z m-5541 -156 c1 -19
-6 -29 -26 -38 -16 -7 -37 -18 -48 -26 l-21 -13 22 -208 c13 -115 23 -243 23
-284 2 -249 -133 -365 -424 -365 -112 0 -124 2 -178 28 -72 36 -120 97 -147
186 -12 38 -32 174 -48 316 l-27 250 -52 14 -52 14 -7 54 c-3 30 -5 55 -3 57
4 4 413 55 416 52 1 0 3 -28 5 -60 l3 -60 -40 -23 c-22 -12 -44 -24 -49 -26
-10 -3 40 -482 56 -528 27 -78 69 -109 150 -109 108 0 171 44 184 126 7 50
-31 488 -47 530 -5 15 -22 25 -57 34 l-50 11 -7 56 c-4 30 -5 56 -3 57 2 2 95
14 208 27 l205 24 7 -35 c4 -19 7 -47 7 -61z m6696 56 c99 -9 185 -18 190 -19
6 -2 8 -26 5 -62 l-5 -57 -52 -15 c-47 -13 -53 -18 -58 -46 -8 -49 -65 -619
-62 -622 1 -2 24 -12 50 -23 l47 -20 -6 -58 c-4 -32 -7 -59 -8 -59 -1 -1 -95
8 -209 19 l-208 21 7 56 c3 30 8 58 10 62 3 4 25 10 50 14 25 3 48 12 50 18 2
6 19 153 37 326 l33 315 -48 28 c-50 30 -55 41 -42 106 8 37 -10 35 219 16z
m1318 -150 c150 -39 245 -126 287 -263 24 -78 27 -225 5 -326 -58 -272 -286
-435 -538 -383 -157 32 -243 94 -300 215 -29 61 -32 77 -35 187 -8 290 100
493 301 566 65 23 200 25 280 4z m-9783 -72 c75 -37 115 -75 163 -156 55 -91
81 -200 80 -337 0 -132 -17 -193 -79 -286 -148 -223 -519 -256 -678 -60 -76
94 -116 215 -123 376 -6 135 10 215 60 299 82 137 215 202 407 198 96 -2 111
-5 170 -34z m10952 -134 l136 -23 117 -336 c65 -184 120 -339 123 -344 5 -9
92 408 92 441 0 6 -20 24 -45 40 -28 18 -43 33 -40 43 2 8 7 32 11 53 5 28 11
37 26 37 20 0 361 -60 365 -64 2 -2 -2 -28 -8 -58 l-11 -56 -56 -14 -56 -13
-75 -387 c-42 -213 -79 -389 -82 -393 -9 -8 -197 26 -214 39 -7 6 -64 152
-125 325 -61 173 -115 321 -119 330 -7 11 -10 7 -14 -15 -63 -313 -79 -405
-74 -418 3 -8 25 -25 48 -36 l41 -21 -7 -46 c-9 -63 -15 -75 -34 -70 -9 2 -95
19 -191 37 -96 19 -177 35 -178 36 -8 6 20 109 31 116 7 4 26 8 42 8 17 0 36
4 44 9 11 7 131 582 131 631 0 8 -21 28 -46 43 -33 20 -44 32 -40 45 3 9 8 34
12 55 6 35 9 39 33 34 14 -3 88 -16 163 -28z m-12252 -23 c0 -2 11 -58 25
-126 14 -68 25 -124 25 -125 0 -1 -19 -5 -42 -9 -24 -4 -52 -9 -63 -12 -16 -4
-26 4 -44 38 -13 24 -25 44 -27 46 -2 3 -216 -37 -221 -42 -3 -2 44 -227 49
-231 2 -3 64 7 137 21 73 14 135 23 137 21 2 -2 10 -34 18 -71 10 -50 11 -69
2 -72 -6 -2 -66 -15 -134 -27 -67 -13 -125 -26 -128 -29 -7 -8 36 -230 49
-245 5 -8 33 -13 67 -13 l57 0 12 -57 c7 -37 8 -59 1 -63 -21 -13 -412 -82
-420 -74 -5 5 -12 32 -15 59 l-7 50 46 25 c25 13 46 27 45 30 0 3 -28 147 -63
320 l-62 315 -53 11 c-29 7 -54 14 -55 16 -2 1 -8 26 -13 55 l-10 52 66 15
c162 36 585 123 609 125 6 1 12 -1 12 -3z m6630 -1025 c1319 -14 2730 -123
4090 -317 135 -19 251 -35 258 -37 22 -4 -321 -523 -583 -883 -914 -1255
-2038 -2387 -3350 -3375 -412 -310 -849 -614 -870 -605 -29 11 -460 311 -710
495 -1575 1155 -2869 2491 -3870 3997 -237 355 -241 363 -223 368 58 19 1081
148 1548 195 1266 128 2368 176 3710 162z"/>
<path d="M14303 8638 c4 -57 7 -203 7 -325 l0 -223 66 0 c97 0 151 17 195 61
53 53 72 124 72 264 0 132 -19 209 -66 261 -45 52 -81 64 -188 64 l-92 0 6
-102z"/>
<path d="M15860 8498 c-30 -83 -56 -155 -58 -159 -2 -6 196 -19 206 -13 3 2
-85 315 -91 320 -1 2 -27 -65 -57 -148z"/>
<path d="M19615 8397 c-82 -46 -135 -191 -138 -377 -2 -95 0 -110 24 -155 33
-65 89 -98 168 -99 140 -1 215 103 240 334 17 162 -17 262 -102 301 -59 26
-141 25 -192 -4z"/>
<path d="M9768 8356 c-60 -22 -84 -42 -109 -93 -21 -42 -24 -62 -23 -153 1
-167 50 -313 122 -368 31 -24 44 -27 108 -27 64 0 77 3 115 30 23 17 51 48 62
69 40 77 32 278 -15 404 -47 127 -146 179 -260 138z"/>
<path d="M14827 6360 c-59 -118 -111 -220 -116 -226 -5 -6 -117 -26 -250 -44
l-241 -34 177 -178 177 -177 -41 -238 c-23 -131 -39 -240 -38 -242 2 -2 99 47
215 108 117 61 216 111 222 111 6 0 105 -50 220 -111 116 -60 212 -108 215
-105 3 2 -14 112 -37 243 l-41 238 178 172 c98 94 175 173 173 176 -3 2 -113
19 -245 38 l-240 34 -111 225 -111 225 -106 -215z"/>
<path d="M12986 6236 c-59 -125 -84 -166 -100 -169 -11 -3 -93 -15 -181 -28
-88 -12 -162 -24 -165 -27 -3 -2 55 -61 128 -131 l134 -126 -31 -179 c-17 -99
-29 -181 -27 -183 3 -3 77 33 165 79 l161 83 161 -83 c88 -46 162 -82 165 -80
2 2 -10 85 -27 184 l-31 179 133 127 c74 69 132 128 129 130 -3 3 -85 16 -183
30 -98 15 -180 28 -182 30 -1 1 -39 76 -84 166 -45 89 -82 162 -84 162 -1 0
-37 -74 -81 -164z"/>
<path d="M16715 6240 c-44 -89 -86 -165 -95 -169 -8 -5 -93 -19 -188 -32
l-173 -23 133 -133 133 -133 -30 -180 c-17 -99 -28 -180 -24 -180 4 0 76 37
160 81 85 45 159 82 164 82 6 0 79 -37 164 -82 84 -45 156 -79 159 -76 3 3 -8
84 -24 180 l-30 174 133 133 133 133 -182 27 c-101 14 -184 27 -185 27 -2 1
-40 76 -86 167 l-83 167 -79 -163z"/>
</g>
</svg>
