<?xml version="1.0" standalone="no"?>
<!DOCTYPE svg PUBLIC "-//W3C//DTD SVG 20010904//EN"
 "http://www.w3.org/TR/2001/REC-SVG-20010904/DTD/svg10.dtd">
<svg version="1.0" xmlns="http://www.w3.org/2000/svg"
 width="50.000000pt" height="50.000000pt" viewBox="0 0 50.000000 50.000000"
 preserveAspectRatio="xMidYMid meet">

<g transform="translate(0.000000,50.000000) scale(0.100000,-0.100000)"
fill="#fff8f8" stroke="none">
<path d="M150 443 c-148 -78 -160 -281 -23 -372 26 -17 52 -31 59 -31 7 0 19
-3 28 -6 14 -5 16 6 16 80 0 85 0 86 -25 86 -18 0 -25 5 -25 20 0 15 7 20 25
20 23 0 25 4 25 43 0 30 6 49 18 60 24 22 82 23 82 2 0 -8 -8 -15 -18 -15 -27
0 -42 -20 -42 -57 0 -30 3 -33 31 -33 24 0 30 -4 27 -18 -2 -10 -14 -18 -31
-20 l-27 -3 0 -85 0 -84 28 6 c94 21 172 118 172 214 0 113 -92 210 -208 218
-48 3 -66 -1 -112 -25z m210 -27 c58 -38 85 -89 85 -161 0 -79 -25 -129 -84
-166 -65 -42 -71 -39 -71 31 0 57 1 60 24 60 16 0 26 7 30 23 12 46 8 57 -24
57 -25 0 -30 4 -30 25 0 21 5 25 30 25 28 0 30 3 30 35 0 35 0 35 -45 35 -59
0 -95 -32 -95 -85 0 -31 -3 -35 -25 -35 -22 0 -25 -4 -25 -40 0 -36 3 -40 25
-40 24 0 25 -3 25 -60 0 -70 -6 -73 -71 -31 -71 45 -103 132 -79 219 13 51 75
117 122 131 53 16 135 6 178 -23z"/>
</g>
</svg>
