<?xml version="1.0" standalone="no"?>
<!DOCTYPE svg PUBLIC "-//W3C//DTD SVG 20010904//EN"
 "http://www.w3.org/TR/2001/REC-SVG-20010904/DTD/svg10.dtd">
<svg version="1.0" xmlns="http://www.w3.org/2000/svg"
 width="50.000000pt" height="50.000000pt" viewBox="0 0 50.000000 50.000000"
 preserveAspectRatio="xMidYMid meet">

<g transform="translate(0.000000,50.000000) scale(0.100000,-0.100000)"
fill="#fff8f8" stroke="none">
<path d="M100 452 c-56 -28 -70 -68 -70 -202 0 -192 28 -220 220 -220 192 0
220 28 220 220 0 134 -14 174 -70 202 -50 26 -250 26 -300 0z m290 -17 c49
-25 60 -60 60 -185 0 -179 -21 -200 -200 -200 -179 0 -200 21 -200 200 0 179
20 199 198 200 82 0 121 -4 142 -15z"/>
<path d="M354 379 c-10 -17 13 -36 27 -22 12 12 4 33 -11 33 -5 0 -12 -5 -16
-11z"/>
<path d="M198 344 c-30 -16 -58 -61 -58 -94 0 -53 57 -110 110 -110 34 0 78
28 95 60 19 37 19 63 0 100 -28 54 -94 74 -147 44z m113 -33 c39 -40 39 -82 0
-122 -20 -20 -39 -29 -61 -29 -43 0 -90 47 -90 90 0 43 47 90 90 90 22 0 41
-9 61 -29z"/>
</g>
</svg>
