<?xml version="1.0" standalone="no"?>
<!DOCTYPE svg PUBLIC "-//W3C//DTD SVG 20010904//EN"
 "http://www.w3.org/TR/2001/REC-SVG-20010904/DTD/svg10.dtd">
<svg version="1.0" xmlns="http://www.w3.org/2000/svg"
 width="20.000000pt" height="20.000000pt" viewBox="0 0 30.000000 30.000000"
 preserveAspectRatio="xMidYMid meet">

<g transform="translate(0.000000,30.000000) scale(0.100000,-0.100000)"
fill="#fefefe" stroke="none">
<path d="M162 257 c-12 -13 -22 -33 -22 -44 0 -19 57 -102 70 -102 13 0 70 84
70 103 0 29 -40 66 -71 66 -14 0 -35 -10 -47 -23z m64 -38 c10 -17 -13 -36
-27 -22 -12 12 -4 33 11 33 5 0 12 -5 16 -11z"/>
<path d="M30 154 l0 -95 37 -15 c29 -13 44 -14 77 -5 29 8 51 9 76 1 51 -15
50 -15 50 46 0 34 -4 53 -10 49 -5 -3 -10 -23 -10 -44 0 -36 -2 -38 -26 -33
-14 2 -28 12 -31 21 -14 43 -16 45 -22 17 -4 -17 -15 -32 -28 -37 -23 -8 -23
-7 -23 80 l0 88 -39 11 c-21 7 -41 12 -45 12 -3 0 -6 -43 -6 -96z m68 -22 c3
-81 3 -82 -20 -73 -21 8 -23 15 -26 89 -3 81 -3 82 20 73 21 -8 23 -15 26 -89z"/>
</g>
</svg>
