<?xml version="1.0" standalone="no"?>
<!DOCTYPE svg PUBLIC "-//W3C//DTD SVG 20010904//EN"
 "http://www.w3.org/TR/2001/REC-SVG-20010904/DTD/svg10.dtd">
<svg version="1.0" xmlns="http://www.w3.org/2000/svg"
 width="20.000000pt" height="20.000000pt" viewBox="0 0 50.000000 50.000000"
 preserveAspectRatio="xMidYMid meet">

<g transform="translate(0.000000,50.000000) scale(0.100000,-0.100000)"
fill="#fefefe" stroke="none">
<path d="M0 282 l0 -198 65 -32 65 -32 59 30 59 29 67 -30 66 -30 59 32 60 32
0 138 c0 86 -4 139 -10 139 -6 0 -10 -51 -10 -132 l0 -133 -50 -27 -49 -27
-65 29 -66 30 -60 -30 -59 -30 -56 27 -55 27 0 178 c0 98 2 178 5 178 3 0 28
-11 55 -25 l50 -25 60 30 60 30 40 -20 c42 -22 60 -25 60 -11 0 4 -23 18 -51
29 l-51 22 -59 -30 -59 -30 -60 30 c-33 16 -62 30 -65 30 -3 0 -5 -89 -5 -198z"/>
<path d="M322 367 c-84 -84 -115 -123 -123 -151 -6 -21 -8 -40 -6 -43 3 -2 22
0 43 6 28 8 67 39 151 123 62 62 113 120 113 130 0 21 -27 48 -48 48 -10 0
-68 -51 -130 -113z m123 53 c19 -21 18 -22 -78 -118 l-97 -97 -22 23 -23 22
95 95 c52 52 97 95 101 95 3 0 14 -9 24 -20z"/>
</g>
</svg>
