<?xml version="1.0" standalone="no"?>
<!DOCTYPE svg PUBLIC "-//W3C//DTD SVG 20010904//EN"
 "http://www.w3.org/TR/2001/REC-SVG-20010904/DTD/svg10.dtd">
<svg version="1.0" xmlns="http://www.w3.org/2000/svg"
 width="64.000000pt" height="64.000000pt" viewBox="0 0 64.000000 64.000000"
 preserveAspectRatio="xMidYMid meet">

<g transform="translate(0.000000,64.000000) scale(0.100000,-0.100000)"
fill="#fefefe" stroke="none">
<path d="M240 537 c-79 -25 -150 -129 -150 -219 0 -90 68 -188 148 -212 19 -7
22 -4 22 23 0 24 -11 42 -44 74 -49 46 -63 90 -51 154 9 49 69 109 118 118 60
11 107 -3 148 -44 68 -68 65 -159 -7 -228 -33 -32 -44 -50 -44 -74 0 -27 3
-30 23 -23 55 17 114 79 136 143 27 82 6 167 -59 231 -65 65 -150 85 -240 57z"/>
<path d="M277 292 c-20 -21 -37 -43 -37 -49 0 -19 20 -26 35 -13 13 11 15 1
15 -68 0 -58 4 -83 15 -92 12 -10 18 -10 30 0 11 9 15 34 15 92 0 69 2 79 15
68 16 -13 35 -6 35 14 0 11 -70 86 -81 86 -3 0 -22 -17 -42 -38z"/>
</g>
</svg>
