<?xml version="1.0" standalone="no"?>
<!DOCTYPE svg PUBLIC "-//W3C//DTD SVG 20010904//EN"
 "http://www.w3.org/TR/2001/REC-SVG-20010904/DTD/svg10.dtd">
<svg version="1.0" xmlns="http://www.w3.org/2000/svg"
 width="50.000000pt" height="50.000000pt" viewBox="0 0 50.000000 50.000000"
 preserveAspectRatio="xMidYMid meet">

<g transform="translate(0.000000,50.000000) scale(0.100000,-0.100000)"
fill="#fefefe" stroke="none">
<path d="M155 456 c-27 -13 -60 -34 -72 -47 -34 -37 -63 -110 -63 -159 0 -79
73 -201 103 -171 9 9 9 15 -1 29 -73 101 -81 167 -29 243 78 116 236 116 314
0 52 -76 44 -142 -29 -243 -10 -14 -10 -20 -1 -29 30 -30 103 91 103 171 0 52
-35 134 -71 167 -37 34 -110 63 -159 63 -27 0 -65 -10 -95 -24z"/>
<path d="M237 284 c-4 -4 -7 -50 -7 -102 l0 -95 -25 23 c-20 19 -28 21 -37 12
-10 -10 -2 -23 35 -60 l47 -47 47 47 c37 37 45 50 35 60 -9 9 -17 7 -36 -12
l-25 -23 -3 98 c-3 91 -11 118 -31 99z"/>
</g>
</svg>
