<?xml version="1.0" standalone="no"?>
<!DOCTYPE svg PUBLIC "-//W3C//DTD SVG 20010904//EN"
 "http://www.w3.org/TR/2001/REC-SVG-20010904/DTD/svg10.dtd">
<svg version="1.0" xmlns="http://www.w3.org/2000/svg"
 width="64.000000pt" height="64.000000pt" viewBox="0 0 64.000000 64.000000"
 preserveAspectRatio="xMidYMid meet">

<g transform="translate(0.000000,64.000000) scale(0.100000,-0.100000)"
fill="#fff8f8" stroke="none">
<path d="M11 566 c-8 -9 -11 -70 -9 -197 l3 -184 28 -3 c23 -3 27 -8 27 -37 0
-39 14 -52 35 -35 13 10 15 8 15 -13 0 -39 12 -39 68 -2 l51 35 203 2 203 3 0
195 c0 195 0 195 -22 198 -14 2 -23 10 -23 22 0 10 -7 21 -16 24 -9 3 -136 6
-284 6 -215 0 -270 -3 -279 -14z m559 -186 l0 -180 -188 0 -187 0 -52 -35
c-29 -19 -55 -35 -58 -35 -3 0 -5 16 -5 35 0 32 -2 35 -30 35 l-30 0 0 180 0
180 275 0 275 0 0 -180z m50 -50 l0 -180 -198 0 -198 0 -40 -30 c-47 -36 -54
-37 -54 -7 0 15 11 29 33 42 28 18 56 21 227 25 l195 5 3 163 c2 135 5 162 17
162 13 0 15 -28 15 -180z"/>
<path d="M63 496 c11 -8 17 -27 17 -50 0 -20 5 -36 10 -36 6 0 10 16 10 36 0
23 6 42 18 50 15 12 12 13 -28 13 -40 0 -43 -1 -27 -13z"/>
<path d="M150 459 c0 -31 4 -48 10 -44 6 3 10 13 10 21 0 24 38 17 43 -8 2
-13 4 2 4 32 0 30 -2 45 -4 33 -6 -30 -43 -32 -43 -3 0 11 -4 20 -10 20 -5 0
-10 -23 -10 -51z"/>
<path d="M266 470 c-21 -53 -20 -63 4 -48 16 10 24 10 40 0 11 -7 20 -8 20 -2
0 18 -32 90 -40 90 -4 0 -15 -18 -24 -40z m34 -10 c0 -5 -5 -10 -11 -10 -5 0
-7 5 -4 10 3 6 8 10 11 10 2 0 4 -4 4 -10z"/>
<path d="M360 459 c0 -31 4 -48 10 -44 6 3 10 16 10 28 1 21 2 21 21 -6 11
-15 25 -25 30 -21 12 7 12 81 -1 89 -6 4 -10 -6 -10 -22 l-1 -28 -24 28 c-13
15 -27 27 -30 27 -3 0 -5 -23 -5 -51z"/>
<path d="M468 504 c-11 -10 -10 -82 1 -88 5 -3 11 3 14 14 7 26 24 26 32 0 3
-11 11 -20 16 -20 12 0 11 4 -2 34 -9 20 -9 29 1 41 18 22 4 31 -18 12 -23
-21 -30 -21 -34 -1 -2 9 -6 12 -10 8z"/>
<path d="M140 338 c0 -9 5 -20 10 -23 6 -3 10 -17 10 -30 0 -13 5 -27 10 -30
6 -3 10 4 10 17 0 13 7 32 15 42 21 28 19 42 -3 23 -17 -15 -19 -15 -35 0 -16
16 -17 16 -17 1z"/>
<path d="M241 336 c-17 -20 -10 -67 12 -80 24 -15 51 4 55 40 6 43 -41 71 -67
40z m44 -36 c0 -16 -6 -26 -17 -28 -14 -3 -18 3 -18 28 0 25 4 31 18 28 11 -2
17 -12 17 -28z"/>
<path d="M338 344 c-12 -12 -9 -69 4 -82 30 -30 68 -1 68 52 0 41 -18 40 -22
-1 -2 -26 -8 -39 -20 -41 -13 -3 -17 6 -20 38 -2 23 -6 38 -10 34z"/>
<path d="M440 321 c0 -17 5 -31 10 -31 6 0 10 11 10 24 0 14 -4 28 -10 31 -6
4 -10 -7 -10 -24z"/>
<path d="M440 260 c0 -5 5 -10 11 -10 5 0 7 5 4 10 -3 6 -8 10 -11 10 -2 0 -4
-4 -4 -10z"/>
</g>
</svg>
