<?xml version="1.0" standalone="no"?>
<!DOCTYPE svg PUBLIC "-//W3C//DTD SVG 20010904//EN"
 "http://www.w3.org/TR/2001/REC-SVG-20010904/DTD/svg10.dtd">
<svg version="1.0" xmlns="http://www.w3.org/2000/svg"
 width="64.000000pt" height="64.000000pt" viewBox="0 0 64.000000 64.000000"
 preserveAspectRatio="xMidYMid meet">

<g transform="translate(0.000000,64.000000) scale(0.100000,-0.100000)"
fill="#fefefe" stroke="none">
<path d="M242 568 c-7 -7 -12 -18 -12 -25 0 -9 -18 -13 -61 -13 -33 0 -69 -5
-80 -10 -26 -14 -26 -60 1 -67 11 -3 20 -9 20 -13 0 -34 44 -318 51 -332 12
-22 31 -26 139 -33 47 -2 117 -7 155 -11 60 -5 74 -3 92 13 34 28 34 96 1 138
-22 28 -28 61 -15 82 4 6 0 17 -9 24 -12 10 -20 10 -35 1 -35 -22 -40 -15 -33
51 5 49 11 66 30 80 53 41 18 77 -72 77 -52 0 -66 3 -71 18 -4 9 -11 20 -17
24 -17 12 -71 9 -84 -4z m86 -25 c2 -9 -9 -13 -37 -13 -30 0 -41 4 -41 16 0
11 9 14 37 12 20 -2 38 -9 41 -15z m157 -58 c0 -19 -8 -20 -191 -23 -159 -2
-193 0 -203 12 -27 32 -2 36 197 34 189 -3 197 -4 197 -23z m-43 -90 c-3 -35
-10 -55 -23 -65 -14 -11 -18 -24 -15 -50 3 -26 -2 -42 -20 -63 -17 -21 -24
-41 -24 -73 l0 -44 -84 0 c-61 0 -87 4 -96 14 -10 13 -50 265 -50 319 0 16 12
17 158 15 l157 -3 -3 -50z m3 -95 c3 -5 -1 -10 -9 -10 -9 0 -16 5 -16 10 0 6
4 10 9 10 6 0 13 -4 16 -10z m65 0 c0 -5 -7 -10 -16 -10 -8 0 -12 5 -9 10 3 6
10 10 16 10 5 0 9 -4 9 -10z m-17 -37 c-13 -2 -35 -2 -50 0 -16 2 -5 4 22 4
28 0 40 -2 28 -4z m16 -37 c44 -23 64 -84 41 -127 -14 -25 -40 -25 -40 1 0 11
-4 20 -10 20 -5 0 -10 -9 -10 -20 0 -11 -4 -20 -10 -20 -5 0 -10 9 -10 20 0
11 -4 20 -10 20 -5 0 -10 -9 -10 -20 0 -27 -16 -25 -25 3 l-8 22 -4 -23 c-8
-39 -33 -6 -33 43 0 36 5 48 31 69 35 29 58 32 98 12z"/>
<path d="M347 380 c-10 -27 -16 -200 -7 -200 9 0 25 181 17 202 -4 10 -6 10
-10 -2z"/>
<path d="M218 283 c2 -54 8 -102 13 -107 11 -12 12 55 3 143 -11 96 -22 71
-16 -36z"/>
<path d="M280 274 c0 -67 4 -103 10 -99 13 8 13 205 0 205 -6 0 -10 -42 -10
-106z"/>
</g>
</svg>
