<?xml version="1.0" standalone="no"?>
<!DOCTYPE svg PUBLIC "-//W3C//DTD SVG 20010904//EN"
 "http://www.w3.org/TR/2001/REC-SVG-20010904/DTD/svg10.dtd">
<svg version="1.0" xmlns="http://www.w3.org/2000/svg"
 width="50.000000pt" height="50.000000pt" viewBox="0 0 50.000000 50.000000"
 preserveAspectRatio="xMidYMid meet">

<g transform="translate(0.000000,50.000000) scale(0.100000,-0.100000)"
fill="#fff8f8" stroke="none">
<path d="M316 439 c-38 -11 -63 -35 -76 -75 -7 -21 -18 -34 -28 -34 -29 1
-106 40 -139 72 -29 28 -32 29 -41 12 -5 -11 -10 -49 -10 -87 0 -52 5 -73 20
-92 11 -14 16 -29 13 -35 -4 -6 9 -26 29 -46 l35 -35 -25 -9 c-14 -6 -41 -10
-60 -10 -91 0 12 -53 114 -58 54 -3 86 0 119 13 92 35 167 132 179 233 5 31
15 57 33 75 19 21 23 30 13 36 -7 4 -12 12 -10 17 4 12 -11 15 -40 7 -13 -3
-33 -1 -45 5 -37 17 -51 19 -81 11z m89 -40 c3 -4 13 -5 23 -2 14 6 15 4 5 -9
-15 -18 -7 -29 15 -21 15 4 16 3 1 -9 -9 -7 -18 -36 -22 -65 -3 -28 -15 -69
-26 -90 -23 -47 -90 -109 -137 -129 -36 -15 -156 -18 -189 -5 -17 7 -14 10 23
21 37 12 72 36 61 43 -2 1 -17 9 -33 17 -33 17 -46 40 -22 40 9 0 16 5 16 10
0 6 -6 10 -14 10 -8 0 -27 15 -42 32 -27 32 -27 33 -6 36 27 4 27 7 2 39 -18
23 -28 73 -14 73 3 0 20 -11 38 -25 41 -31 91 -52 136 -57 33 -3 34 -1 36 30
2 37 35 79 68 84 24 4 73 -10 81 -23z"/>
</g>
</svg>
