<?xml version="1.0" standalone="no"?>
<!DOCTYPE svg PUBLIC "-//W3C//DTD SVG 20010904//EN"
 "http://www.w3.org/TR/2001/REC-SVG-20010904/DTD/svg10.dtd">
<svg version="1.0" xmlns="http://www.w3.org/2000/svg"
 width="50.000000pt" height="50.000000pt" viewBox="0 0 50.000000 50.000000"
 preserveAspectRatio="xMidYMid meet">

<g transform="translate(0.000000,50.000000) scale(0.100000,-0.100000)"
fill="#fefefe" stroke="none">
<path d="M218 480 c-7 -11 -20 -20 -28 -20 -34 0 -40 -22 -40 -138 l0 -115
-21 27 c-31 40 -89 30 -89 -15 0 -20 112 -171 148 -199 19 -16 40 -20 94 -20
64 0 72 3 99 29 l29 29 0 164 c0 169 -4 188 -42 188 -12 0 -18 8 -18 23 0 29
-18 47 -46 47 -13 0 -26 5 -29 10 -10 17 -44 11 -57 -10z m50 -108 c1 -56 7
-102 12 -102 5 0 11 42 12 93 2 74 6 92 18 92 12 0 16 -18 18 -92 3 -103 19
-126 24 -35 2 43 7 57 18 57 13 0 15 -26 18 -159 2 -152 2 -160 -19 -183 -19
-20 -32 -23 -89 -23 -62 0 -68 2 -96 32 -65 70 -126 158 -121 173 10 25 34 17
63 -20 14 -19 30 -35 35 -35 5 0 10 60 11 133 3 109 6 132 18 132 12 0 16 -17
18 -82 4 -117 22 -104 22 15 0 54 3 102 7 106 20 19 28 -8 31 -102z"/>
<path d="M215 193 c-24 -24 -17 -47 25 -88 l40 -39 40 39 c42 41 49 64 25 88
-19 20 -111 20 -130 0z m53 -15 c8 -8 15 -8 26 2 19 15 46 6 46 -15 0 -8 -13
-29 -29 -47 l-29 -33 -26 24 c-28 27 -41 55 -31 71 8 13 28 13 43 -2z"/>
</g>
</svg>
